<?xml version="1.0" encoding="utf-8"?>
<!-- Generator: Adobe Illustrator 23.0.4, SVG Export Plug-In . SVG Version: 6.00 Build 0)  -->
<svg version="1.1" id="Relaciones" xmlns="http://www.w3.org/2000/svg" xmlns:xlink="http://www.w3.org/1999/xlink" x="0px" y="0px"
	 viewBox="0 0 1920 1080" style="enable-background:new 0 0 1920 1080;" xml:space="preserve">
<style type="text/css">
	.st0{fill:none;stroke:#2D4D58;stroke-width:0.5;}
	.st1{fill:none;stroke:#2D4D58;stroke-width:0.5;stroke-miterlimit:10;}
</style>
<g>
	<path class="st0" d="M1508.5,330.5c-0.85-0.75-20,27-69,48c-89,25-100,187-220.88,235.74"/>
</g>
<g>
	<path class="st0" d="M1523.5,264.5c0,0,6,104-53,145c-109,46-116,150-252,205"/>
</g>
<path class="st1" d="M1218.5,614.5c-156,115-345-52-156-306"/>
<g>
	<path class="st0" d="M1673.5,724.5c0,0-60,28-144-5c-170-51-154-169-310.88-105.26"/>
</g>
<g>
	<path class="st0" d="M1659.5,799.5c0,0-16-31-130-80c-170-51-157-169-311-105"/>
</g>
<g>
	<path class="st0" d="M1360.5,152.5c0,0,47,170-42,206c-155.61,64.25,5,192-100,256"/>
</g>
<g>
	<path class="st0" d="M1406.5,881.5c0,0,16,6-53-51c-115.99-65.04-3-280-135-216"/>
</g>
<g>
	<path class="st0" d="M1395.5,176.5c0,0,7,140-77,182c-155.61,64.25,5,192-100,256"/>
</g>
<g>
	<path class="st0" d="M1573.5,323.5c-21,29-66,105-94,119c-141,36-133,120-260.88,171.74"/>
</g>
<g>
	<path class="st0" d="M1614.5,908.5c0,0-130-92-162-111c-157-91-59-243-234-183"/>
</g>
<g>
	<path class="st0" d="M1456.5,282.5c13,50-3,89-17,96c-116,57-93,183-221,236"/>
</g>
<g>
	<path class="st0" d="M1659.5,312.5c-82,36-65,118-180,130c-140.95,30.79-136,121-260.88,171.74"/>
</g>
<path class="st1" d="M1218.5,615.5c-140,114-509,7-550-47"/>
<path class="st1" d="M1209.5,619.5c-147,133-541-113-541-362"/>
<path class="st1" d="M564.5,444.5c166,136,498,282,645,175"/>
<g>
	<path class="st0" d="M1543.5,383.5c-19,28-53,36-53,36c-140.95,30.79-147,144-271.88,194.74"/>
</g>
<path class="st0" d="M1615.5,749.5c0,0-2,3-86-30c-170-51-154-169-310.88-105.26"/>
<path class="st0" d="M1550.5,908.5c0,0-66-92-98-111"/>
<path class="st0" d="M1580.5,851.5c0,0-96-35-128-54"/>
<path class="st0" d="M1576.5,971.5c-62-39-92-155-124-174"/>
</svg>
